<?xml version="1.0" encoding="utf-8"?>
<!-- Generator: Adobe Illustrator 16.0.0, SVG Export Plug-In . SVG Version: 6.00 Build 0)  -->
<!DOCTYPE svg PUBLIC "-//W3C//DTD SVG 1.1//EN" "http://www.w3.org/Graphics/SVG/1.1/DTD/svg11.dtd">
<svg version="1.1" xmlns="http://www.w3.org/2000/svg" xmlns:xlink="http://www.w3.org/1999/xlink" x="0px" y="0px" width="243px"
	 height="243px" viewBox="0 0 243 243" enable-background="new 0 0 243 243" xml:space="preserve">
<g id="Layer_1">
	<g id="Layer_1_1_">
		<g>
			<path fill="#FFFFFF" d="M121.5,243C54.505,243,0,188.495,0,121.5S54.505,0,121.5,0S243,54.505,243,121.5S188.495,243,121.5,243z
				 M121.5,18C64.43,18,18,64.43,18,121.5C18,178.57,64.43,225,121.5,225c57.07,0,103.5-46.43,103.5-103.5
				C225,64.43,178.57,18,121.5,18z"/>
		</g>
	</g>
	<g id="Layer_2">
	</g>
</g>
<g id="Layer_2_1_">
	<g id="Layer_3_2_">
		<path fill="#FFFFFF" d="M170.267,83.412c-17.786,0-45.288,24.003-53.038,31.11c-0.503,0.299-0.977,0.644-1.414,1.052
			c-14.305,13.359-34.845,27.778-43.081,27.778c-12.046,0-21.847-9.801-21.847-21.847c0-12.046,9.8-21.849,21.847-21.849
			c1.822,0,9.081,0.987,26.084,13.686c1.415,1.059,4.556,3.39,4.556,3.39l12.738-10.572c0,0-5.829-4.529-7.569-5.826
			C93.303,88.947,81.589,83.422,72.735,83.422c-20.999,0-38.083,17.083-38.083,38.084c0,20.998,17.084,38.082,38.083,38.082
			c17.763,0,45.281-24.002,53.038-31.104c0.502-0.3,0.978-0.649,1.414-1.053c14.297-13.358,34.833-27.781,43.08-27.781
			c12.045,0,21.845,9.8,21.845,21.85c0,12.047-9.8,21.847-21.845,21.847c-1.8,0-8.96-0.967-25.679-13.38
			c-1.408-1.047-4.648-3.544-4.648-3.544l-12.573,10.435c0,0,3.946,3.478,7.539,6.142c15.245,11.319,26.48,16.588,35.361,16.588
			c21.001,0,38.083-17.087,38.083-38.092C208.354,100.498,191.268,83.412,170.267,83.412z"/>
	</g>
</g>
</svg>
